<?xml version="1.0" standalone="no"?><!DOCTYPE svg PUBLIC "-//W3C//DTD SVG 1.1//EN" "http://www.w3.org/Graphics/SVG/1.1/DTD/svg11.dtd"><svg t="1617970492255" class="icon" viewBox="0 0 1024 1024" version="1.1" xmlns="http://www.w3.org/2000/svg" p-id="2394" xmlns:xlink="http://www.w3.org/1999/xlink" width="200" height="200"><defs><style type="text/css"></style></defs><path d="M529.075399 63.978127c57.93448 0 114.130364 11.343349 167.027108 33.716916 51.101865 21.614274 97.002264 52.5611 136.425136 91.980901 39.422871 39.420825 70.373791 85.319178 91.992157 136.420019 22.376637 52.896744 33.723056 109.09672 33.723056 167.040411 0 57.936527-11.346419 114.130364-33.723056 167.025061-21.618367 51.096748-52.569286 96.992031-91.992157 136.411833-39.422871 39.418778-85.325317 70.364581-136.425136 91.977831-52.894697 22.37152-109.090581 33.715893-167.027108 33.715893-57.936527 0-114.130364-11.343349-167.020968-33.715893-51.096748-21.612227-96.988961-52.557006-136.40774-91.976808-39.416731-39.418778-70.361511-85.313038-91.974761-136.411833-22.370497-52.892651-33.713846-109.087511-33.713846-167.026084 0-57.944713 11.343349-114.145713 33.714869-167.041434 21.61325-51.101865 52.557006-97.000218 91.974761-136.420019 39.417755-39.418778 85.310991-70.366627 136.406716-91.979878C414.945035 75.321476 471.138872 63.978127 529.075399 63.978127M529.075399 43.512003c-248.28683 0-449.583438 201.302749-449.583438 449.624371 0 248.295016 201.296609 449.594695 449.583438 449.594695 248.281713 0 449.635627-201.301725 449.635627-449.594695C978.711026 244.814752 777.357112 43.512003 529.075399 43.512003L529.075399 43.512003z" p-id="2395" fill="#707070"></path><path d="M222.273874 483.542878l53.043077 57.839313 253.593695-249.347998 253.713422 248.456698 52.896744-57.078996L528.910647 176.611393 222.273874 483.542878zM304.453548 556.615127l-0.460488 209.668277 149.552108 0L453.545168 602.981131l146.753365 0.268106 0 163.033144 154.008606 0L754.30714 556.615127 528.891204 335.630107 304.453548 556.615127zM304.453548 556.615127" p-id="2396" fill="#707070"></path></svg>