<?xml version="1.0" standalone="no"?><!DOCTYPE svg PUBLIC "-//W3C//DTD SVG 1.1//EN" "http://www.w3.org/Graphics/SVG/1.1/DTD/svg11.dtd"><svg t="1617970392835" class="icon" viewBox="0 0 1039 1024" version="1.1" xmlns="http://www.w3.org/2000/svg" p-id="2175" xmlns:xlink="http://www.w3.org/1999/xlink" width="202.9296875" height="200"><defs><style type="text/css"></style></defs><path d="M1022.979764 271.246751c0-16.769942-6.862291-31.928177-17.924231-42.838667L856.416214 79.767741l-0.030699 0.031722c-0.484024-0.517793-0.961908-1.038656-1.468444-1.544169-11.765975-11.766998-27.192316-17.639752-42.614563-17.623379L210.67828 60.631916c-15.421224-0.016373-30.847565 5.856381-42.614563 17.623379-0.505513 0.505513-0.984421 1.026376-1.467421 1.544169l-0.030699-0.031722L17.926278 228.40706c-11.06194 10.910491-17.924231 26.069749-17.924231 42.838667l-0.002047 0 0 60.173474c0 49.215912 23.63735 92.906993 60.176544 120.352065l0 447.802886c0 35.172057 28.513404 63.685461 63.685461 63.685461l775.258823 0c35.172057 0 63.685461-28.513404 63.685461-63.685461L962.806289 451.77229c36.538171-27.445072 60.176544-71.136154 60.176544-120.352065l0-60.173474L1022.979764 271.246751zM60.175521 271.233448l0.010233 0.013303 148.926868-148.929938-0.004093-0.004093 1.505283-1.50733 0 0.002047 601.75214 0 0-0.002047 1.505283 1.50733-0.004093 0.004093 148.927891 148.929938 0.010233-0.013303 0 0.013303-0.010233 0L60.185754 271.246751l-0.010233 0L60.175521 271.233448zM752.190431 871.242897c0 17.58654-14.256702 31.842219-31.842219 31.842219L302.631552 903.085116c-17.58654 0-31.843242-14.256702-31.843242-31.842219L270.78831 572.122309l481.404168 0L752.190431 871.242897zM902.631792 871.242897c0 17.58654-14.257725 31.842219-31.842219 31.842219l-56.666604 0c-17.58654 0-31.843242-14.256702-31.843242-31.842219L782.279726 573.878303c0-17.58654-14.256702-31.843242-31.842219-31.843242l-477.894228 0c-17.58654 0-31.843242 14.257725-31.843242 31.843242l0 297.407574c-0.022513 17.550725-14.248516 31.776727-31.79924 31.79924l-56.70549 0c-17.58654 0-31.843242-14.256702-31.843242-31.842219L120.352065 478.842833c9.722432 1.972934 19.781532 3.015683 30.087249 3.015683 33.857109 0 65.11809-11.213389 90.258677-30.087249l0.004093 0.004093c25.142633 18.884093 56.392358 30.083156 90.263793 30.083156 33.857109 0 65.120137-11.213389 90.258677-30.087249l0.00614 0.004093c25.142633 18.884093 56.392358 30.083156 90.263793 30.083156 33.858132 0 65.120137-11.213389 90.258677-30.087249l0.004093 0.004093c25.142633 18.884093 56.392358 30.083156 90.26277 30.083156 33.858132 0 65.12116-11.213389 90.258677-30.087249l0.004093 0.004093c25.142633 18.884093 56.390311 30.083156 90.261747 30.083156 10.304693 0 20.36584-1.042749 30.088272-3.015683L902.632815 871.242897zM962.805266 331.422272c0 49.850361-40.411385 90.263793-90.26277 90.263793l0 0.002047c-18.565844 0-35.814694-5.611811-50.163493-15.21861-24.157189-16.182564-40.071647-43.709501-40.101323-74.963319-0.028653 31.238468-15.930831 58.762335-40.074717 74.941829 0 0-0.002047 0-0.002047-0.002047-14.347776 9.608845-31.621185 15.242146-50.186006 15.242146s-35.814694-5.611811-50.163493-15.21861c-24.157189-16.182564-40.070624-43.709501-40.1003-74.963319-0.028653 31.238468-15.930831 58.762335-40.074717 74.941829 0 0-0.002047 0-0.002047-0.002047-14.347776 9.608845-31.621185 15.242146-50.186006 15.242146-18.564821 0-35.815717-5.611811-50.163493-15.21861-24.158213-16.182564-40.071647-43.709501-40.1003-74.963319-0.028653 31.240515-15.933901 58.764382-40.077787 74.943876 0 0-0.002047-0.002047-0.002047-0.004093-14.347776 9.608845-31.621185 15.242146-50.184983 15.242146-18.564821 0-35.815717-5.611811-50.163493-15.21861-24.157189-16.182564-40.070624-43.709501-40.1003-74.963319-0.028653 31.238468-15.933901 58.762335-40.074717 74.941829 0 0-0.002047 0-0.002047-0.002047-14.347776 9.608845-31.619138 15.242146-50.183959 15.242146l0-0.004093c-49.851385 0-90.26277-40.411385-90.26277-90.263793l0-30.087249 902.629745 0 0 30.087249L962.802196 331.422272z" p-id="2176" fill="#707070"></path><path d="M340.531743 734.2662c-5.875824 5.874801-15.399735 5.874801-21.274536 0l0 0c-5.876847-5.874801-5.876847-15.399735 0-21.274536l106.373703-106.375749c5.874801-5.874801 15.400758-5.874801 21.276582 0l0 0c5.874801 5.874801 5.874801 15.399735 0 21.275559L340.531743 734.2662z" p-id="2177" fill="#707070"></path><path d="M340.531743 816.47248c-5.875824 5.874801-15.399735 5.874801-21.274536 0l0 0c-5.876847-5.875824-5.876847-15.398712 0-21.273513l106.373703-106.375749c5.874801-5.874801 15.400758-5.874801 21.276582 0l0 0c5.874801 5.874801 5.874801 15.398712 0 21.273513L340.531743 816.47248z" p-id="2178" fill="#707070"></path></svg>